<?xml version="1.0" encoding="UTF-8"?>
<svg xmlns="http://www.w3.org/2000/svg" xmlns:xlink="http://www.w3.org/1999/xlink" width="506pt" height="506pt" viewBox="0 0 506 506" version="1.1">
<g id="surface1">
<rect x="0" y="0" width="506" height="506" style="fill:rgb(9.799194%,8.999634%,10.598755%);fill-opacity:1;stroke:none;"/>
<path style=" stroke:none;fill-rule:nonzero;fill:rgb(80.39856%,7.798767%,15.299988%);fill-opacity:1;" d="M 149.324219 33.273438 L 194.558594 33.273438 L 194.558594 57.535156 L 241.433594 57.535156 L 241.433594 33.273438 L 287.492188 33.273438 L 287.492188 80.152344 L 310.929688 80.152344 L 310.929688 56.714844 L 333.957031 56.714844 L 333.957031 33.273438 L 379.601563 33.273438 L 379.601563 56.714844 L 357.398438 56.714844 L 357.398438 80.152344 L 403.039063 80.152344 L 403.039063 103.179688 L 379.601563 103.179688 L 379.601563 126.207031 L 425.242188 126.207031 L 425.242188 148.824219 L 403.039063 148.824219 L 403.039063 172.265625 L 379.601563 172.265625 L 379.601563 195.292969 L 403.039063 195.292969 L 403.039063 218.730469 L 356.984375 218.730469 L 356.984375 287.8125 L 333.957031 287.8125 L 333.957031 172.675781 L 310.929688 172.675781 L 310.929688 149.234375 L 194.558594 149.234375 L 194.558594 172.675781 L 171.53125 172.675781 L 171.53125 287.8125 L 148.503906 287.8125 L 148.503906 219.140625 L 102.449219 219.140625 L 102.449219 195.292969 L 125.886719 195.292969 L 125.886719 172.675781 L 102.449219 172.675781 L 102.449219 149.648438 L 79.417969 149.648438 L 79.417969 127.03125 L 125.886719 127.03125 L 125.886719 104.003906 L 102.035156 104.003906 L 102.035156 79.738281 L 171.941406 79.738281 L 171.941406 56.710938 L 148.914063 56.710938 "/>
<path style=" stroke:none;fill-rule:nonzero;fill:rgb(80.39856%,7.798767%,15.299988%);fill-opacity:1;" d="M 403.039063 242.140625 L 426.582031 242.140625 L 426.582031 218.730469 L 403.039063 218.730469 Z M 403.039063 242.140625 "/>
<path style=" stroke:none;fill-rule:nonzero;fill:rgb(80.39856%,7.798767%,15.299988%);fill-opacity:1;" d="M 79.417969 241.910156 L 102.449219 241.910156 L 102.449219 219.140625 L 79.417969 219.140625 Z M 79.417969 241.910156 "/>
<path style=" stroke:none;fill-rule:nonzero;fill:rgb(79.998779%,50.999451%,46.699524%);fill-opacity:1;" d="M 172.484375 472.726563 L 334.066406 472.726563 L 334.066406 449.839844 L 172.484375 449.839844 Z M 172.484375 472.726563 "/>
<path style=" stroke:none;fill-rule:nonzero;fill:rgb(95.698547%,69.398499%,66.699219%);fill-opacity:1;" d="M 172.484375 449.839844 L 148.222656 449.839844 L 148.222656 426.949219 L 124.878906 426.949219 L 124.878906 287.8125 L 102.449219 287.8125 L 102.449219 219.140625 L 148.503906 219.140625 L 148.503906 287.8125 L 171.53125 287.8125 L 171.53125 172.675781 L 194.558594 172.675781 L 194.558594 149.234375 L 310.929688 149.234375 L 310.929688 172.675781 L 333.957031 172.675781 L 333.957031 287.8125 L 356.984375 287.8125 L 356.984375 218.730469 L 403.039063 218.730469 L 403.039063 287.8125 L 379.839844 287.8125 L 379.839844 427.40625 L 356.492188 427.40625 L 356.492188 449.839844 "/>
<path style=" stroke:none;fill-rule:nonzero;fill:rgb(47.499084%,8.599854%,9.799194%);fill-opacity:1;" d="M 356.984375 311.351563 L 379.839844 311.351563 L 379.839844 287.8125 L 356.984375 287.8125 Z M 356.984375 311.351563 "/>
<path style=" stroke:none;fill-rule:nonzero;fill:rgb(47.499084%,8.599854%,9.799194%);fill-opacity:1;" d="M 124.878906 311.019531 L 148.503906 311.019531 L 148.503906 287.8125 L 124.878906 287.8125 Z M 124.878906 311.019531 "/>
<path style=" stroke:none;fill-rule:nonzero;fill:rgb(79.199219%,50.59967%,46.299744%);fill-opacity:1;" d="M 403.039063 218.730469 L 403.039063 242.140625 L 380.628906 242.140625 L 380.628906 265.09375 L 356.984375 265.09375 L 356.984375 218.730469 "/>
<path style=" stroke:none;fill-rule:nonzero;fill:rgb(79.199219%,50.59967%,46.299744%);fill-opacity:1;" d="M 102.449219 241.910156 L 125.675781 241.910156 L 125.675781 264.976563 L 148.503906 264.976563 L 148.503906 219.140625 L 102.449219 219.140625 "/>
<path style=" stroke:none;fill-rule:nonzero;fill:rgb(79.199219%,50.59967%,46.299744%);fill-opacity:1;" d="M 171.53125 172.675781 L 194.558594 172.675781 L 194.558594 195.964844 L 218.058594 195.964844 L 218.058594 218.730469 L 194.796875 218.730469 L 194.796875 241.910156 L 171.53125 241.910156 "/>
<path style=" stroke:none;fill-rule:nonzero;fill:rgb(79.199219%,50.59967%,46.299744%);fill-opacity:1;" d="M 310.929688 172.675781 L 333.957031 172.675781 L 333.957031 241.910156 L 310.929688 241.910156 L 310.929688 218.730469 L 287.699219 218.730469 L 287.699219 195.769531 L 310.824219 195.769531 "/>
<path style=" stroke:none;fill-rule:nonzero;fill:rgb(79.199219%,50.59967%,46.299744%);fill-opacity:1;" d="M 241.855469 241.914063 L 264.289063 241.914063 L 264.289063 195.769531 L 241.855469 195.769531 Z M 241.855469 241.914063 "/>
<path style=" stroke:none;fill-rule:nonzero;fill:rgb(79.199219%,50.59967%,46.299744%);fill-opacity:1;" d="M 356.984375 334.269531 L 379.839844 334.269531 L 379.839844 311.351563 L 356.984375 311.351563 Z M 356.984375 334.269531 "/>
<path style=" stroke:none;fill-rule:nonzero;fill:rgb(79.199219%,50.59967%,46.299744%);fill-opacity:1;" d="M 124.878906 334.453125 L 148.503906 334.453125 L 148.503906 311.019531 L 124.878906 311.019531 Z M 124.878906 334.453125 "/>
<path style=" stroke:none;fill-rule:nonzero;fill:rgb(47.499084%,8.599854%,9.799194%);fill-opacity:1;" d="M 194.558594 195.964844 L 218.058594 195.964844 L 218.058594 172.675781 L 194.558594 172.675781 Z M 194.558594 195.964844 "/>
<path style=" stroke:none;fill-rule:nonzero;fill:rgb(47.499084%,8.599854%,9.799194%);fill-opacity:1;" d="M 287.695313 195.769531 L 310.929688 195.769531 L 310.929688 172.675781 L 287.695313 172.675781 Z M 287.695313 195.769531 "/>
<path style=" stroke:none;fill-rule:nonzero;fill:rgb(47.499084%,8.599854%,9.799194%);fill-opacity:1;" d="M 218.058594 218.730469 L 241.855469 218.730469 L 241.855469 195.960938 L 218.058594 195.960938 Z M 218.058594 218.730469 "/>
<path style=" stroke:none;fill-rule:nonzero;fill:rgb(47.499084%,8.599854%,9.799194%);fill-opacity:1;" d="M 264.289063 218.730469 L 287.695313 218.730469 L 287.695313 195.769531 L 264.289063 195.769531 Z M 264.289063 218.730469 "/>
<path style=" stroke:none;fill-rule:nonzero;fill:rgb(85.099792%,28.199768%,34.098816%);fill-opacity:1;" d="M 218.058594 311.351563 L 287.695313 311.351563 L 287.695313 265.09375 L 218.058594 265.09375 Z M 218.058594 311.351563 "/>
<path style=" stroke:none;fill-rule:nonzero;fill:rgb(100%,100%,100%);fill-opacity:1;" d="M 310.929688 218.730469 L 264.289063 218.730469 L 264.289063 241.910156 L 287.609375 241.910156 L 287.609375 265.09375 L 310.929688 265.09375 "/>
<path style=" stroke:none;fill-rule:nonzero;fill:rgb(100%,100%,100%);fill-opacity:1;" d="M 218.058594 265.09375 L 218.058594 241.914063 L 241.855469 241.914063 L 241.855469 218.730469 L 194.796875 218.730469 L 194.796875 265.09375 "/>
<path style=" stroke:none;fill-rule:nonzero;fill:rgb(9.799194%,8.999634%,10.598755%);fill-opacity:1;" d="M 264.289063 265.09375 L 287.609375 265.09375 L 287.609375 241.914063 L 264.289063 241.914063 Z M 264.289063 265.09375 "/>
<path style=" stroke:none;fill-rule:nonzero;fill:rgb(9.799194%,8.999634%,10.598755%);fill-opacity:1;" d="M 218.058594 265.09375 L 241.855469 265.09375 L 241.855469 241.914063 L 218.058594 241.914063 Z M 218.058594 265.09375 "/>
<path style=" stroke:none;fill-rule:nonzero;fill:rgb(9.799194%,8.999634%,10.598755%);fill-opacity:1;" d="M 172.484375 334.453125 L 195.203125 334.453125 L 195.203125 357.277344 L 310.628906 357.277344 L 310.628906 334.453125 L 334.066406 334.453125 L 334.066406 357.277344 L 356.984375 357.277344 L 356.984375 427.40625 L 148.222656 427.40625 L 148.222656 357 L 172.484375 357 "/>
<path style=" stroke:none;fill-rule:nonzero;fill:rgb(100%,100%,100%);fill-opacity:1;" d="M 195.203125 357.277344 L 310.628906 357.277344 L 310.628906 334.453125 L 195.203125 334.453125 Z M 195.203125 357.277344 "/>
<path style=" stroke:none;fill-rule:nonzero;fill:rgb(100%,100%,100%);fill-opacity:1;" d="M 195.203125 427.40625 L 310.628906 427.40625 L 310.628906 404.105469 L 195.203125 404.105469 Z M 195.203125 427.40625 "/>
<path style=" stroke:none;fill-rule:nonzero;fill:rgb(47.499084%,8.599854%,9.799194%);fill-opacity:1;" d="M 218.058594 404.109375 L 287.695313 404.109375 L 287.695313 380.929688 L 218.058594 380.929688 Z M 218.058594 404.109375 "/>
<path style=" stroke:none;fill-rule:nonzero;fill:rgb(47.499084%,8.599854%,9.799194%);fill-opacity:1;" d="M 310.628906 427.40625 L 334.066406 427.40625 L 334.066406 404.105469 L 310.628906 404.105469 Z M 310.628906 427.40625 "/>
<path style=" stroke:none;fill-rule:nonzero;fill:rgb(47.499084%,8.599854%,9.799194%);fill-opacity:1;" d="M 172.484375 427.40625 L 195.207031 427.40625 L 195.207031 404.105469 L 172.484375 404.105469 Z M 172.484375 427.40625 "/>
<path style=" stroke:none;fill-rule:nonzero;fill:rgb(95.698547%,69.398499%,66.699219%);fill-opacity:1;" d="M 172.484375 404.105469 L 195.207031 404.105469 L 195.207031 379.863281 L 172.484375 379.863281 Z M 172.484375 404.105469 "/>
<path style=" stroke:none;fill-rule:nonzero;fill:rgb(95.698547%,69.398499%,66.699219%);fill-opacity:1;" d="M 310.628906 404.109375 L 334.066406 404.109375 L 334.066406 380.929688 L 310.628906 380.929688 Z M 310.628906 404.109375 "/>
</g>
</svg>
